# AST/ASF file generated using VICON BodyLanguage
# -----------------------------------------------
:version 1.10
:name VICON
:units
  mass 1.0
  length 0.45
  angle deg
:documentation
   .ast/.asf automatically generated from VICON data using
   VICON BodyBuilder and BodyLanguage model FoxedUp or BRILLIANT.MOD
:root
   order TX TY TZ RX RY RZ
   axis XYZ
   position 0 0 0  
   orientation 0 0 0 
:bonedata
  begin
     id 1 
     name lhipjoint
     direction 0.693937 -0.600361 0.397515 
     length 2.37164 
     axis 0 0 0  XYZ
  end
  begin
     id 2 
     name lfemur
     direction 0.34202 -0.939693 0  
     length 6.18497  
     axis 0 0 20  XYZ
    dof rx ry rz
    limits (-160.0 20.0)
           (-70.0 70.0)
           (-60.0 70.0)
  end
  begin
     id 3 
     name ltibia
     direction 0.34202 -0.939693 0   
     length 6.91601   
     axis 0 0 20   XYZ
    dof rx
    limits (-10.0 170.0)
  end
  begin
     id 4 
     name lfoot
     direction 0.0978718 -0.2689 0.958182   
     length 1.81453   
     axis -90 7.62852e-016 20   XYZ
    dof rx rz
    limits (-45.0 90.0)
           (-70.0 20.0)
  end
  begin
     id 5 
     name ltoes
     direction 1.53569e-011 -4.21951e-011 1   
     length 0.912052   
     axis -90 7.62852e-016 20   XYZ
    dof rx
    limits (-90.0 20.0)
  end
  begin
     id 6 
     name rhipjoint
     direction -0.643996 -0.637876 0.422354   
     length 2.23216  
     axis 0 0 0  XYZ 
  end
  begin
     id 7 
     name rfemur
     direction -0.34202 -0.939693 0   
     length 6.15404   
     axis 0 0 -20   XYZ
    dof rx ry rz
    limits (-160.0 20.0)
           (-70.0 70.0)
           (-70.0 60.0)
  end
  begin
     id 8 
     name rtibia
     direction -0.34202 -0.939693 0   
     length 6.86744   
     axis 0 0 -20   XYZ
    dof rx
    limits (-10.0 170.0)
 end
 begin
     id 9 
     name rfoot
     direction -0.118701 -0.326127 0.937844   
     length 1.9243  
     axis -90 -7.62852e-016 -20   XYZ
    dof rx rz
    limits (-45.0 90.0)
           (-20.0 70.0)
  end
  begin
     id 10 
     name rtoes
     direction -1.5356e-011 -4.2181e-011 1   
     length 0.958865   
     axis -90 -7.62852e-016 -20   XYZ
    dof rx
    limits (-90.0 20.0)
  end
  begin
     id 11 
     name lowerback
     direction 0.0310826 0.968686 -0.246334   
     length 2.00021   
     axis 0 0 0   XYZ
    dof rx ry rz
    limits (-20.0 45.0)
           (-30.0 30.0)
           (-30.0 30.0)
  end
  begin
     id 12 
     name upperback
     direction -0.0152834 0.999474 -0.0286152   
     length 2.03728   
     axis 0 0 0   XYZ
    dof rx ry rz
    limits (-20.0 45.0)
           (-30.0 30.0)
           (-30.0 30.0)
  end
  begin
     id 13 
     name thorax
     direction -0.0323701 0.996236 0.0804149   
     length 2.16   
     axis 0 0 0   XYZ
    dof rx ry rz
    limits (-20.0 45.0)
           (-30.0 30.0)
           (-30.0 30.0)
  end
  begin
     id 14 
     name lowerneck
     direction 0.0307935 0.982251 0.185027   
     length 1.43558   
     axis 0 0 0   XYZ
    dof rx ry rz
    limits (-20.0 45.0)
           (-30.0 30.0)
           (-30.0 30.0)
  end
  begin
     id 15 
     name upperneck
     direction -0.0927153 0.994775 0.0427454   
     length 1.44603   
     axis 0 0 0   XYZ
    dof rx ry rz
    limits (-20.0 45.0)
           (-30.0 30.0)
           (-30.0 30.0)
  end
  begin
     id 16
     name head
     direction -0.0341265 0.999406 -0.00472033  
     length 1.45931  
     axis 0 0 0   XYZ
    dof rx ry rz
    limits (-20.0 45.0)
           (-30.0 30.0)
           (-30.0 30.0)
  end
  begin
     id 17 
     name lclavicle
     direction 0.820755 0.555306 -0.134151  
     length 2.66075  
     axis 0 0 0   XYZ
    dof ry rz
    limits (-20.0 10.0)
           (0.0 20.0)
  end
  begin
     id 18 
     name lhumerus
     direction 1 -4.48971e-011 5.24853e-027   
     length 5.0546   
     axis -180 -30 -90   XYZ
    dof rx ry rz
    limits (-60.0 90.0)
           (-90.0 90.0)
           (-90.0 90.0)
  end
  begin
     id 19
     name lradius
     direction 1 -4.48971e-011 2.76575e-028   
     length 3.39013   
     axis -180 -30 -90   XYZ
    dof rx
    limits (-10.0 170.0)
  end
  begin
     id 20
     name lwrist
     direction 1 -4.48939e-011 -2.27826e-027   
     length 1.69507   
     axis 2.17013e-015 90 90   XYZ
    dof ry
    limits (-180.0 0.0)
 end
  begin
     id 21 
     name lhand
     direction 1 -4.49009e-011 -4.55652e-027   
     length 0.572425   
     axis 2.90745e-015 90 90   XYZ
    dof rx rz
    limits (-90.0 90.0)
           (-45.0 45.0)
  end
  begin
     id 22 
     name lfingers
     direction 1 -4.48955e-011 -9.11303e-027   
     length 0.461504   
     axis 5.81489e-015 90 90   XYZ
    dof rx
    limits (0.0 90.0)
  end
  begin
     id 23
     name lthumb
     direction 0.707107 -6.34929e-011 0.707107   
     length 0.66263   
     axis -90 45 2.85299e-015   XYZ
    dof rx rz
    limits (-45.0 45.0)
           (-45.0 45.0)
  end
  begin
     id 24 
     name rclavicle
     direction -0.754477 0.632921 -0.173712   
     length 2.73081  
     axis 0 0 0   XYZ 
    dof ry rz
    limits (-10.0 20.0)
           (-20.0 0.0)
  end
  begin
     id 25 
     name rhumerus
     direction -1 -4.48969e-011 5.1496e-027  
     length 5.0701   
     axis -180 30 90   XYZ
    dof rx ry rz
    limits (-90.0 60.0)
           (-90.0 90.0)
           (-90.0 90.0)
  end
  begin
     id 26 
     name rradius
     direction -1 -4.48967e-011 -7.15624e-028   
     length 3.14957   
     axis -180 30 90   XYZ
    dof rx
    limits (-10.0 170.0)
  end
  begin
     id 27 
     name rwrist
     direction -1 -4.48938e-011 -2.27826e-027   
     length 1.57479   
     axis 2.17013e-015 -90 -90   XYZ
    dof ry
    limits (-180.0 0.0)
  end
  begin
     id 28
     name rhand
     direction -1 -4.49008e-011 -4.55652e-027   
     length 0.718191   
     axis 2.90745e-015 -90 -90   XYZ
    dof rx rz
    limits (-90.0 90.0)
           (-45.0 45.0)
  end
  begin
     id 29
     name rfingers
     direction -1 -4.48953e-011 -9.11303e-027   
     length 0.579024   
     axis 5.81489e-015 -90 -90   XYZ
    dof rx
    limits (0.0 90.0)
  end
  begin
     id 30
     name rthumb
     direction -0.707107 -6.34937e-011 0.707107   
     length 0.831366   
     axis -90 -45 -2.85299e-015   XYZ
    dof rx rz
    limits (-45.0 45.0)
           (-45.0 45.0)
  end
:hierarchy
  begin
    root lhipjoint rhipjoint lowerback
    lhipjoint lfemur
    lfemur ltibia
    ltibia lfoot
    lfoot ltoes
    rhipjoint rfemur
    rfemur rtibia
    rtibia rfoot
    rfoot rtoes
    lowerback upperback
    upperback thorax
    thorax lowerneck lclavicle rclavicle
    lowerneck upperneck
    upperneck head
    lclavicle lhumerus
    lhumerus lradius
    lradius lwrist
    lwrist lhand lthumb
    lhand lfingers
    rclavicle rhumerus
    rhumerus rradius
    rradius rwrist
    rwrist rhand rthumb
    rhand rfingers
  end

#!OML:ASF H:\Male1\Project 1\Capture day 1\Session 1\Male1.ASF
:FULLY-SPECIFIED
:DEGREES
1
root 27.7447 15.1183 -0.0346461 -73.5206 -84.5524 70.2546
lowerback 4.27475 0.716931 -5.13272
upperback 5.0831 0.729903 -1.35107
thorax 2.80458 0.160878 1.46336
lowerneck -8.64367 3.18531 7.14275
upperneck 24.0515 3.39747 -3.16613
head 9.14871 1.71037 -1.97065
rclavicle 4.43538e-015 2.21148e-014
rhumerus -39.6282 6.67946 -88.0611
rradius 41.6018
rwrist -18.885
rhand -9.92046 2.11595
rfingers 7.12502
rthumb 16.0602 -27.2385
lclavicle 4.43538e-015 2.21148e-014
lhumerus -25.9422 -14.9064 86.2207
lradius 38.4403
lwrist 5.99791
lhand -20.0361 9.93439
lfingers 7.12502
lthumb 6.30498 39.8206
rfemur -27.3233 20.0125 14.1927
rtibia 29.3206
rfoot -38.5459 -31.396
rtoes -1.78302
lfemur 19.6381 -7.16121 -33.4188
ltibia 6.267
lfoot -16.8823 17.2212
ltoes -5.54309
2
root 27.5219 15.08 -0.0526787 -73.196 -84.4681 69.8007
lowerback 4.29289 0.605353 -4.9939
upperback 5.11076 0.583212 -1.30322
thorax 2.83232 0.0902151 1.43798
lowerneck -8.81206 3.2853 7.19513
upperneck 24.3021 3.53595 -3.27018
head 9.2792 1.767 -2.00092
rclavicle 4.41053e-016 8.19987e-015
rhumerus -39.8694 7.10561 -87.7824
rradius 42.2003
rwrist -19.1252
rhand -11.3299 1.93531
rfingers 7.12502
rthumb 14.7027 -27.5233
lclavicle 4.41053e-016 8.19987e-015
lhumerus -26.319 -14.1774 86.1547
lradius 38.2526
lwrist 5.25551
lhand -19.2396 11.561
lfingers 7.12502
lthumb 7.07386 41.4228
rfemur -26.7234 18.7436 14.7703
rtibia 29.5962
rfoot -36.202 -31.1634
rtoes -3.26
lfemur 18.7439 -7.18749 -33.5376
ltibia 9.92729
lfoot -18.1612 17.3548
ltoes -6.11475
3
root 27.2941 15.0698 -0.0720653 -72.0212 -84.2952 68.4271
lowerback 4.35924 0.523273 -4.74078
upperback 5.14999 0.475521 -1.321
thorax 2.8429 0.0437437 1.28006
lowerneck -8.75051 3.27557 7.08008
upperneck 24.2923 3.53564 -3.22365
head 9.26047 1.76138 -1.96611
rclavicle -9.56651e-016 2.04748e-014
rhumerus -40.0947 6.81721 -87.3479
rradius 42.5969
rwrist -19.7643
rhand -11.6594 1.48969
rfingers 7.12502
rthumb 14.3852 -27.9919
lclavicle -9.56651e-016 2.04748e-014
lhumerus -26.7473 -13.6479 86.1138
lradius 37.5953
lwrist 4.01906
lhand -18.949 11.8711
lfingers 7.12502
lthumb 7.35439 41.7233
rfemur -25.712 16.535 15.4919
rtibia 30.021
rfoot -33.8192 -30.3307
rtoes -3.09449
lfemur 17.4981 -7.3547 -33.5717
ltibia 14.2444
lfoot -18.3275 17.3621
ltoes -8.27041
4
root 27.0703 15.0547 -0.0909882 -71.0541 -84.3937 67.2995
lowerback 4.45123 0.430883 -4.30079
upperback 5.1774 0.356757 -1.23028
thorax 2.82571 -0.00242702 1.12996
lowerneck -8.78714 3.33398 7.03104
upperneck 24.3857 3.63665 -3.28394
head 9.30563 1.79708 -1.96812
rclavicle 5.46658e-015 -2.98177e-015
rhumerus -40.2081 6.79884 -86.9404
rradius 42.8441
rwrist -20.3346
rhand -12.2368 1.24776
rfingers 7.12502
rthumb 13.8288 -28.2726
lclavicle 5.46658e-015 -2.98177e-015
lhumerus -27.1441 -12.898 86.0763
lradius 37.043
lwrist 3.06109
lhand -18.7486 11.6779
lfingers 7.12502
lthumb 7.5478 41.5232
rfemur -24.9509 15.036 16.213
rtibia 30.3465
rfoot -31.8724 -29.7668
rtoes -2.74347
lfemur 16.3879 -6.50669 -33.0211
ltibia 18.1181
lfoot -18.2699 16.5905
ltoes -10.3862
5
root 26.8487 15.0491 -0.110606 -70.0445 -84.6427 66.1418
lowerback 4.59534 0.359003 -3.68586
upperback 5.18792 0.267324 -1.10547
thorax 2.759 -0.0274932 0.916636
lowerneck -8.82078 3.38563 6.96381
upperneck 24.4942 3.72938 -3.33562
head 9.35454 1.82788 -1.96514
rclavicle 3.27995e-015 1.19271e-015
rhumerus -40.2195 6.6366 -86.4949
rradius 42.8335
rwrist -20.9795
rhand -12.9189 1.12495
rfingers 7.12502
rthumb 13.1714 -28.439
lclavicle 3.27995e-015 1.19271e-015
lhumerus -27.5512 -12.0437 86.0303
lradius 36.3723
lwrist 2.03067
lhand -18.7272 10.87
lfingers 7.12502
lthumb 7.56844 40.7146
rfemur -24.1893 13.3816 17.056
rtibia 30.6798
rfoot -29.7403 -29.0804
rtoes -2.57111
lfemur 14.9371 -5.55575 -32.2318
ltibia 22.4728
lfoot -17.6452 15.8167
ltoes -12.8286
6
root 26.6302 15.0533 -0.131458 -69.3581 -85.0122 65.3513
lowerback 4.75834 0.316578 -2.96753
upperback 5.18115 0.220755 -0.952324
thorax 2.66136 -0.0278702 0.673664
lowerneck -8.85553 3.43888 6.91165
upperneck 24.6001 3.82917 -3.41618
head 9.40412 1.86028 -1.97384
rclavicle 3.85145e-015 9.14409e-015
rhumerus -40.1039 6.39192 -86.0385
rradius 42.5301
rwrist -21.6818
rhand -13.7094 1.04568
rfingers 7.12502
rthumb 12.4093 -28.566
lclavicle 3.85145e-015 9.14409e-015
lhumerus -27.9639 -11.0525 85.9672
lradius 35.6226
lwrist 1.00795
lhand -18.8776 9.4693
lfingers 7.12502
lthumb 7.42325 39.3191
rfemur -23.4051 11.6839 17.9558
rtibia 30.872
rfoot -27.5675 -28.2211
rtoes -2.41223
lfemur 13.1096 -4.41411 -31.2163
ltibia 27.2684
lfoot -16.4469 14.873
ltoes -15.3819
7
root 26.4167 15.0658 -0.15467 -68.9875 -85.4523 64.9199
lowerback 4.94863 0.304169 -2.22498
upperback 5.16553 0.216174 -0.778708
thorax 2.5384 -0.00737098 0.436819
lowerneck -8.90305 3.48782 6.88005
upperneck 24.709 3.92662 -3.52791
head 9.45821 1.89008 -1.99695
rclavicle 2.98177e-016 2.98177e-015
rhumerus -39.8524 6.11064 -85.5872
rradius 41.9499
rwrist -22.39
rhand -14.6392 0.966334
rfingers 7.12502
rthumb 11.5127 -28.6975
lclavicle 2.98177e-016 2.98177e-015
lhumerus -28.3746 -9.93851 85.8819
lradius 34.8515
lwrist 0.0788124
lhand -19.0694 7.87052
lfingers 7.12502
lthumb 7.23819 37.7267
rfemur -22.6301 10.0067 18.8681
rtibia 30.9763
rfoot -25.5513 -27.2019
rtoes -2.4871
lfemur 10.8766 -3.07623 -30.0121
ltibia 32.5115
lfoot -14.7492 13.5985
ltoes -17.54
8
root 26.2088 15.0848 -0.181058 -68.8999 -85.901 64.8097
lowerback 5.15595 0.32218 -1.53524
upperback 5.15457 0.252777 -0.601151
thorax 2.4111 0.0306768 0.231907
lowerneck -8.98338 3.53431 6.91422
upperneck 24.8119 4.02042 -3.69054
head 9.5191 1.91893 -2.04881
rclavicle 1.49089e-016 -2.78299e-015
rhumerus -39.4949 5.84424 -85.1633
rradius 41.1837
rwrist -23.0408
rhand -15.6261 0.808477
rfingers 7.12502
rthumb 10.5609 -28.9062
lclavicle 1.49089e-016 -2.78299e-015
lhumerus -28.7788 -8.77178 85.7747
lradius 34.1229
lwrist -0.68262
lhand -19.0909 6.87254
lfingers 7.12502
lthumb 7.21743 36.7295
rfemur -21.8213 8.39021 19.7495
rtibia 30.9581
rfoot -23.7951 -26.0511
rtoes -2.75119
lfemur 8.26079 -1.6022 -28.6976
ltibia 38.1167
lfoot -12.65 11.9828
ltoes -19.0346
9
root 26.0079 15.1082 -0.211035 -68.3731 -86.3185 64.2662
lowerback 5.39972 0.36727 -0.914718
upperback 5.16821 0.324716 -0.434591
thorax 2.29016 0.0827234 0.0526045
lowerneck -9.05864 3.55386 7.02673
upperneck 24.8501 4.07032 -3.878
head 9.5563 1.9329 -2.12693
rclavicle 6.26172e-015 6.36111e-015
rhumerus -39.0855 5.62838 -84.7977
rradius 40.3605
rwrist -23.5503
rhand -16.5767 0.466389
rfingers 7.12502
rthumb 9.64374 -29.2929
lclavicle 6.26172e-015 6.36111e-015
lhumerus -29.1558 -7.69459 85.6613
lradius 33.4725
lwrist -1.20274
lhand -18.9296 6.55369
lfingers 7.12502
lthumb 7.3731 36.4052
rfemur -20.9247 6.89847 20.5815
rtibia 30.7841
rfoot -22.4566 -24.9393
rtoes -3.27421
lfemur 5.32728 -0.119372 -27.3393
ltibia 43.9797
lfoot -10.314 10.1409
ltoes -19.3817
10
root 25.8149 15.1352 -0.244562 -66.3509 -86.7081 62.1952
lowerback 5.70852 0.431486 -0.341613
upperback 5.22729 0.420906 -0.270199
thorax 2.18186 0.143577 -0.104214
lowerneck -9.12124 3.52603 7.20384
upperneck 24.8069 4.04227 -4.0576
head 9.55894 1.91865 -2.22136
rclavicle 8.39865e-015 -4.37326e-015
rhumerus -38.6735 5.56311 -84.518
rradius 39.6076
rwrist -23.8665
rhand -17.3956 -0.109969
rfingers 7.12502
rthumb 8.85364 -29.9042
lclavicle 8.39865e-015 -4.37326e-015
lhumerus -29.4636 -6.80979 85.5779
lradius 32.8978
lwrist -1.42703
lhand -18.6591 6.86773
lfingers 7.12502
lthumb 7.63419 36.7099
rfemur -19.8921 5.60167 21.3853
rtibia 30.4251
rfoot -21.5566 -24.0233
rtoes -3.84278
lfemur 2.13544 1.26586 -25.9681
ltibia 49.9808
lfoot -8.08927 8.32442
ltoes -19.2175
11
root 25.63 15.1645 -0.280201 -62.3343 -87.0567 58.082
lowerback 6.08398 0.510127 0.193647
upperback 5.33886 0.535409 -0.108971
thorax 2.09301 0.210783 -0.244983
lowerneck -9.15376 3.45235 7.45283
upperneck 24.669 3.9333 -4.2116
head 9.51831 1.87742 -2.32734
rclavicle -5.11871e-015 2.38542e-015
rhumerus -38.3083 5.77991 -84.3541
rradius 39.0328
rwrist -23.9544
rhand -17.9885 -0.914232
rfingers 7.12502
rthumb 8.2814 -30.7319
lclavicle -5.11871e-015 2.38542e-015
lhumerus -29.6712 -6.15192 85.5479
lradius 32.3746
lwrist -1.39221
lhand -18.4113 7.46233
lfingers 7.12502
lthumb 7.87339 37.2957
rfemur -18.7219 4.52443 22.1511
rtibia 29.8798
rfoot -20.9393 -23.3662
rtoes -4.31547
lfemur -1.24717 2.49747 -24.65
ltibia 55.99
lfoot -6.41412 6.85627
ltoes -19.0051
12
root 25.4533 15.1962 -0.316618 -56.2462 -87.3062 51.8528
lowerback 6.52095 0.60564 0.682496
upperback 5.49279 0.672082 0.020906
thorax 2.01655 0.287052 -0.394355
lowerneck -9.11576 3.31077 7.75295
upperneck 24.4341 3.70127 -4.27062
head 9.42109 1.7944 -2.42192
rclavicle -6.95746e-015 7.95139e-016
rhumerus -38.0431 6.33051 -84.337
rradius 38.7085
rwrist -23.783
rhand -18.3297 -1.79142
rfingers 7.12502
rthumb 7.9521 -31.6218
lclavicle -6.95746e-015 7.95139e-016
lhumerus -29.7654 -5.75916 85.5677
lradius 31.8665
lwrist -1.21253
lhand -18.3226 7.87321
lfingers 7.12502
lthumb 7.95898 37.7034
rfemur -17.4381 3.65444 22.8297
rtibia 29.1669
rfoot -20.5463 -22.9137
rtoes -4.64879
lfemur -4.82085 3.54064 -23.4785
ltibia 61.8824
lfoot -5.58653 5.88725
ltoes -19.1369
13
root 25.2846 15.2291 -0.352768 -49.1414 -87.4113 44.5705
lowerback 6.9946 0.724461 1.10682
upperback 5.68424 0.838976 0.0988279
thorax 1.96186 0.376767 -0.564005
lowerneck -9.02713 3.10658 8.09677
upperneck 24.1591 3.34651 -4.20338
head 9.2908 1.67059 -2.49287
rclavicle 7.85199e-015 -2.78299e-015
rhumerus -37.8958 7.21183 -84.4686
rradius 38.66
rwrist -23.3827
rhand -18.4422 -2.57265
rfingers 7.12502
rthumb 7.8435 -32.4072
lclavicle 7.85199e-015 -2.78299e-015
lhumerus -29.7362 -5.63399 85.6277
lradius 31.3396
lwrist -1.01334
lhand -18.45 7.87169
lfingers 7.12502
lthumb 7.83601 37.7065
rfemur -16.0834 3.00191 23.381
rtibia 28.3387
rfoot -20.3259 -22.6637
rtoes -4.76406
lfemur -8.54064 4.42796 -22.5265
ltibia 67.5517
lfoot -5.62006 5.45967
ltoes -19.5578
